<svg xmlns="http://www.w3.org/2000/svg" version="1.0" width="200.000000pt" height="200.000000pt" viewBox="0 0 200.000000 200.000000" preserveAspectRatio="xMidYMid meet">

<g transform="translate(0.000000,200.000000) scale(0.100000,-0.100000)" fill="#ea103c" stroke="none">
<path d="M244 1710 c-12 -4 -31 -21 -43 -36 -21 -27 -22 -34 -19 -272 l3 -244 28 -24 28 -24 759 0 759 0 28 24 28 24 3 245 3 246 -30 33 -29 33 -749 2 c-411 1 -758 -2 -769 -7z m1116 -240 c26 -26 34 -63 20 -89 -41 -77 -150 -54 -150 32 0 63 86 101 130 57z m204 -1 c35 -28 36 -80 1 -114 -71 -72 -174 37 -105 110 29 31 68 32 104 4z" fill="#ea103c"/>
<path d="M213 866 l-28 -24 -3 -245 -3 -246 30 -33 29 -33 762 0 762 0 29 33 30 33 -3 246 -3 245 -28 24 -28 24 -759 0 -759 0 -28 -24z m1148 -225 c33 -33 35 -50 14 -90 -24 -48 -81 -56 -120 -16 -39 38 -29 106 18 125 38 15 58 11 88 -19z m204 4 c51 -50 17 -135 -55 -135 -66 0 -97 92 -46 137 35 30 71 29 101 -2z" fill="#ea103c"/>
</g>
</svg>